<svg width="128" height="128" viewBox="0 0 128 128" fill="none" xmlns="http://www.w3.org/2000/svg">
<g clip-path="url(#clip0_1_2)">
<path d="M112 0H16C7.16344 0 0 7.16344 0 16V112C0 120.837 7.16344 128 16 128H112C120.837 128 128 120.837 128 112V16C128 7.16344 120.837 0 112 0Z" fill="black"/>
<path d="M95.4445 53.9561L74.2313 32.7429L7.37187 99.6023L4.6066 123.581L28.5851 120.815L95.4445 53.9561Z" fill="#FFD700"/>
<path d="M28.5851 120.815L4.60659 123.581L7.37186 99.6022L28.5851 120.815Z" fill="#F5F5F5"/>
<path d="M95.4445 53.956L84.747 64.6535L63.5338 43.4403L74.2313 32.7428C75.5685 31.4056 76.9442 31.4442 78.3584 32.8584L95.3289 49.8289C96.7431 51.2431 96.7817 52.6189 95.4445 53.956Z" fill="#FF6B6B"/>
<path d="M82.0726 67.3279L87.4214 61.9792L66.2082 40.766L60.8594 46.1147L82.0726 67.3279Z" fill="white"/>
<path d="M33.5 57L40.5 40.9286L58 34.5L40.5 28.0714L33.5 12L26.5 28.0714L9 34.5L26.5 40.9286L33.5 57Z" fill="white"/>
<path d="M105 38L110 27L121 22L110 17L105 6L100 17L89 22L100 27L105 38Z" fill="white"/>
<path d="M105.5 89L109.25 80.25L118 76.5L109.25 72.75L105.5 64L101.75 72.75L93 76.5L101.75 80.25L105.5 89Z" fill="white"/>
<path d="M82 110L84.1 104.75L89 102.5L84.1 100.25L82 95L79.9 100.25L75 102.5L79.9 104.75L82 110Z" fill="white"/>
</g>
<defs>
<clipPath id="clip0_1_2">
<rect width="128" height="128" fill="white"/>
</clipPath>
</defs>
</svg>
